v -60 0 -60
v 60 0 -60
v 60 0 60
v -60 0 60
v -60 0.3 -60
v 60 0.3 -60
v 60 0.3 60
v -60 0.3 60
f 1 2 6 5
f 2 3 7 6
f 3 4 8 7
f 4 1 5 8
f 5 6 7 8
f 1 4 3 2
v -36.4 0.3 -36.4
v -33.6 0.3 -36.4
v -33.6 0.3 -33.6
v -36.4 0.3 -33.6
v -36.4 2 -36.4
v -33.6 2 -36.4
v -33.6 2 -33.6
v -36.4 2 -33.6
f 9 10 14 13
f 10 11 15 14
f 11 12 16 15
f 12 9 13 16
f 13 14 15 16
f 9 12 11 10
v -36.4 0.3 -31.4
v -33.6 0.3 -31.4
v -33.6 0.3 -28.6
v -36.4 0.3 -28.6
v -36.4 6.787 -31.4
v -33.6 6.787 -31.4
v -33.6 6.787 -28.6
v -36.4 6.787 -28.6
f 17 18 22 21
f 18 19 23 22
f 19 20 24 23
f 20 17 21 24
f 21 22 23 24
f 17 20 19 18
v -36.4 0.3 -26.4
v -33.6 0.3 -26.4
v -33.6 0.3 -23.6
v -36.4 0.3 -23.6
v -36.4 2.848 -26.4
v -33.6 2.848 -26.4
v -33.6 2.848 -23.6
v -36.4 2.848 -23.6
f 25 26 30 29
f 26 27 31 30
f 27 28 32 31
f 28 25 29 32
f 29 30 31 32
f 25 28 27 26
v -36.4 0.3 -21.4
v -33.6 0.3 -21.4
v -33.6 0.3 -18.6
v -36.4 0.3 -18.6
v -36.4 2.561 -21.4
v -33.6 2.561 -21.4
v -33.6 2.561 -18.6
v -36.4 2.561 -18.6
f 33 34 38 37
f 34 35 39 38
f 35 36 40 39
f 36 33 37 40
f 37 38 39 40
f 33 36 35 34
v -36.4 0.3 -16.4
v -33.6 0.3 -16.4
v -33.6 0.3 -13.6
v -36.4 0.3 -13.6
v -36.4 6.404 -16.4
v -33.6 6.404 -16.4
v -33.6 6.404 -13.6
v -36.4 6.404 -13.6
f 41 42 46 45
f 42 43 47 46
f 43 44 48 47
f 44 41 45 48
f 45 46 47 48
f 41 44 43 42
v -36.4 0.3 -11.4
v -33.6 0.3 -11.4
v -33.6 0.3 -8.6
v -36.4 0.3 -8.6
v -36.4 4.804 -11.4
v -33.6 4.804 -11.4
v -33.6 4.804 -8.6
v -36.4 4.804 -8.6
f 49 50 54 53
f 50 51 55 54
f 51 52 56 55
f 52 49 53 56
f 53 54 55 56
f 49 52 51 50
v -36.4 0.3 -6.4
v -33.6 0.3 -6.4
v -33.6 0.3 -3.6
v -36.4 0.3 -3.6
v -36.4 3.339 -6.4
v -33.6 3.339 -6.4
v -33.6 3.339 -3.6
v -36.4 3.339 -3.6
f 57 58 62 61
f 58 59 63 62
f 59 60 64 63
f 60 57 61 64
f 61 62 63 64
f 57 60 59 58
v -36.4 0.3 -1.4
v -33.6 0.3 -1.4
v -33.6 0.3 1.4
v -36.4 0.3 1.4
v -36.4 7.071 -1.4
v -33.6 7.071 -1.4
v -33.6 7.071 1.4
v -36.4 7.071 1.4
f 65 66 70 69
f 66 67 71 70
f 67 68 72 71
f 68 65 69 72
f 69 70 71 72
f 65 68 67 66
v -36.4 0.3 3.6
v -33.6 0.3 3.6
v -33.6 0.3 6.4
v -36.4 0.3 6.4
v -36.4 7.052 3.6
v -33.6 7.052 3.6
v -33.6 7.052 6.4
v -36.4 7.052 6.4
f 73 74 78 77
f 74 75 79 78
f 75 76 80 79
f 76 73 77 80
f 77 78 79 80
f 73 76 75 74
v -36.4 0.3 8.6
v -33.6 0.3 8.6
v -33.6 0.3 11.4
v -36.4 0.3 11.4
v -36.4 4.89 8.6
v -33.6 4.89 8.6
v -33.6 4.89 11.4
v -36.4 4.89 11.4
f 81 82 86 85
f 82 83 87 86
f 83 84 88 87
f 84 81 85 88
f 85 86 87 88
f 81 84 83 82
v -36.4 0.3 13.6
v -33.6 0.3 13.6
v -33.6 0.3 16.4
v -36.4 0.3 16.4
v -36.4 5.978 13.6
v -33.6 5.978 13.6
v -33.6 5.978 16.4
v -36.4 5.978 16.4
f 89 90 94 93
f 90 91 95 94
f 91 92 96 95
f 92 89 93 96
f 93 94 95 96
f 89 92 91 90
v -36.4 0.3 18.6
v -33.6 0.3 18.6
v -33.6 0.3 21.4
v -36.4 0.3 21.4
v -36.4 5.289 18.6
v -33.6 5.289 18.6
v -33.6 5.289 21.4
v -36.4 5.289 21.4
f 97 98 102 101
f 98 99 103 102
f 99 100 104 103
f 100 97 101 104
f 101 102 103 104
f 97 100 99 98
v -36.4 0.3 23.6
v -33.6 0.3 23.6
v -33.6 0.3 26.4
v -36.4 0.3 26.4
v -36.4 6.462 23.6
v -33.6 6.462 23.6
v -33.6 6.462 26.4
v -36.4 6.462 26.4
f 105 106 110 109
f 106 107 111 110
f 107 108 112 111
f 108 105 109 112
f 109 110 111 112
f 105 108 107 106
v -36.4 0.3 28.6
v -33.6 0.3 28.6
v -33.6 0.3 31.4
v -36.4 0.3 31.4
v -36.4 2.564 28.6
v -33.6 2.564 28.6
v -33.6 2.564 31.4
v -36.4 2.564 31.4
f 113 114 118 117
f 114 115 119 118
f 115 116 120 119
f 116 113 117 120
f 117 118 119 120
f 113 116 115 114
v -36.4 0.3 33.6
v -33.6 0.3 33.6
v -33.6 0.3 36.4
v -36.4 0.3 36.4
v -36.4 2.972 33.6
v -33.6 2.972 33.6
v -33.6 2.972 36.4
v -36.4 2.972 36.4
f 121 122 126 125
f 122 123 127 126
f 123 124 128 127
f 124 121 125 128
f 125 126 127 128
f 121 124 123 122
v -31.4 0.3 -36.4
v -28.6 0.3 -36.4
v -28.6 0.3 -33.6
v -31.4 0.3 -33.6
v -31.4 5.144 -36.4
v -28.6 5.144 -36.4
v -28.6 5.144 -33.6
v -31.4 5.144 -33.6
f 129 130 134 133
f 130 131 135 134
f 131 132 136 135
f 132 129 133 136
f 133 134 135 136
f 129 132 131 130
v -31.4 0.3 -31.4
v -28.6 0.3 -31.4
v -28.6 0.3 -28.6
v -31.4 0.3 -28.6
v -31.4 5.546 -31.4
v -28.6 5.546 -31.4
v -28.6 5.546 -28.6
v -31.4 5.546 -28.6
f 137 138 142 141
f 138 139 143 142
f 139 140 144 143
f 140 137 141 144
f 141 142 143 144
f 137 140 139 138
v -31.4 0.3 -26.4
v -28.6 0.3 -26.4
v -28.6 0.3 -23.6
v -31.4 0.3 -23.6
v -31.4 2.066 -26.4
v -28.6 2.066 -26.4
v -28.6 2.066 -23.6
v -31.4 2.066 -23.6
f 145 146 150 149
f 146 147 151 150
f 147 148 152 151
f 148 145 149 152
f 149 150 151 152
f 145 148 147 146
v -31.4 0.3 -21.4
v -28.6 0.3 -21.4
v -28.6 0.3 -18.6
v -31.4 0.3 -18.6
v -31.4 6.225 -21.4
v -28.6 6.225 -21.4
v -28.6 6.225 -18.6
v -31.4 6.225 -18.6
f 153 154 158 157
f 154 155 159 158
f 155 156 160 159
f 156 153 157 160
f 157 158 159 160
f 153 156 155 154
v -31.4 0.3 -16.4
v -28.6 0.3 -16.4
v -28.6 0.3 -13.6
v -31.4 0.3 -13.6
v -31.4 4.472 -16.4
v -28.6 4.472 -16.4
v -28.6 4.472 -13.6
v -31.4 4.472 -13.6
f 161 162 166 165
f 162 163 167 166
f 163 164 168 167
f 164 161 165 168
f 165 166 167 168
f 161 164 163 162
v -31.4 0.3 -11.4
v -28.6 0.3 -11.4
v -28.6 0.3 -8.6
v -31.4 0.3 -8.6
v -31.4 9.708 -11.4
v -28.6 9.708 -11.4
v -28.6 9.708 -8.6
v -31.4 9.708 -8.6
f 169 170 174 173
f 170 171 175 174
f 171 172 176 175
f 172 169 173 176
f 173 174 175 176
f 169 172 171 170
v -31.4 0.3 -6.4
v -28.6 0.3 -6.4
v -28.6 0.3 -3.6
v -31.4 0.3 -3.6
v -31.4 8.426 -6.4
v -28.6 8.426 -6.4
v -28.6 8.426 -3.6
v -31.4 8.426 -3.6
f 177 178 182 181
f 178 179 183 182
f 179 180 184 183
f 180 177 181 184
f 181 182 183 184
f 177 180 179 178
v -31.4 0.3 -1.4
v -28.6 0.3 -1.4
v -28.6 0.3 1.4
v -31.4 0.3 1.4
v -31.4 2.319 -1.4
v -28.6 2.319 -1.4
v -28.6 2.319 1.4
v -31.4 2.319 1.4
f 185 186 190 189
f 186 187 191 190
f 187 188 192 191
f 188 185 189 192
f 189 190 191 192
f 185 188 187 186
v -31.4 0.3 3.6
v -28.6 0.3 3.6
v -28.6 0.3 6.4
v -31.4 0.3 6.4
v -31.4 5.11 3.6
v -28.6 5.11 3.6
v -28.6 5.11 6.4
v -31.4 5.11 6.4
f 193 194 198 197
f 194 195 199 198
f 195 196 200 199
f 196 193 197 200
f 197 198 199 200
f 193 196 195 194
v -31.4 0.3 8.6
v -28.6 0.3 8.6
v -28.6 0.3 11.4
v -31.4 0.3 11.4
v -31.4 9.719 8.6
v -28.6 9.719 8.6
v -28.6 9.719 11.4
v -31.4 9.719 11.4
f 201 202 206 205
f 202 203 207 206
f 203 204 208 207
f 204 201 205 208
f 205 206 207 208
f 201 204 203 202
v -31.4 0.3 13.6
v -28.6 0.3 13.6
v -28.6 0.3 16.4
v -31.4 0.3 16.4
v -31.4 6.586 13.6
v -28.6 6.586 13.6
v -28.6 6.586 16.4
v -31.4 6.586 16.4
f 209 210 214 213
f 210 211 215 214
f 211 212 216 215
f 212 209 213 216
f 213 214 215 216
f 209 212 211 210
v -31.4 0.3 18.6
v -28.6 0.3 18.6
v -28.6 0.3 21.4
v -31.4 0.3 21.4
v -31.4 5.835 18.6
v -28.6 5.835 18.6
v -28.6 5.835 21.4
v -31.4 5.835 21.4
f 217 218 222 221
f 218 219 223 222
f 219 220 224 223
f 220 217 221 224
f 221 222 223 224
f 217 220 219 218
v -31.4 0.3 23.6
v -28.6 0.3 23.6
v -28.6 0.3 26.4
v -31.4 0.3 26.4
v -31.4 4.938 23.6
v -28.6 4.938 23.6
v -28.6 4.938 26.4
v -31.4 4.938 26.4
f 225 226 230 229
f 226 227 231 230
f 227 228 232 231
f 228 225 229 232
f 229 230 231 232
f 225 228 227 226
v -31.4 0.3 28.6
v -28.6 0.3 28.6
v -28.6 0.3 31.4
v -31.4 0.3 31.4
v -31.4 7.439 28.6
v -28.6 7.439 28.6
v -28.6 7.439 31.4
v -31.4 7.439 31.4
f 233 234 238 237
f 234 235 239 238
f 235 236 240 239
f 236 233 237 240
f 237 238 239 240
f 233 236 235 234
v -31.4 0.3 33.6
v -28.6 0.3 33.6
v -28.6 0.3 36.4
v -31.4 0.3 36.4
v -31.4 6.684 33.6
v -28.6 6.684 33.6
v -28.6 6.684 36.4
v -31.4 6.684 36.4
f 241 242 246 245
f 242 243 247 246
f 243 244 248 247
f 244 241 245 248
f 245 246 247 248
f 241 244 243 242
v -26.4 0.3 -36.4
v -23.6 0.3 -36.4
v -23.6 0.3 -33.6
v -26.4 0.3 -33.6
v -26.4 3.269 -36.4
v -23.6 3.269 -36.4
v -23.6 3.269 -33.6
v -26.4 3.269 -33.6
f 249 250 254 253
f 250 251 255 254
f 251 252 256 255
f 252 249 253 256
f 253 254 255 256
f 249 252 251 250
v -26.4 0.3 -31.4
v -23.6 0.3 -31.4
v -23.6 0.3 -28.6
v -26.4 0.3 -28.6
v -26.4 3.232 -31.4
v -23.6 3.232 -31.4
v -23.6 3.232 -28.6
v -26.4 3.232 -28.6
f 257 258 262 261
f 258 259 263 262
f 259 260 264 263
f 260 257 261 264
f 261 262 263 264
f 257 260 259 258
v -26.4 0.3 -26.4
v -23.6 0.3 -26.4
v -23.6 0.3 -23.6
v -26.4 0.3 -23.6
v -26.4 7.959 -26.4
v -23.6 7.959 -26.4
v -23.6 7.959 -23.6
v -26.4 7.959 -23.6
f 265 266 270 269
f 266 267 271 270
f 267 268 272 271
f 268 265 269 272
f 269 270 271 272
f 265 268 267 266
v -26.4 0.3 -21.4
v -23.6 0.3 -21.4
v -23.6 0.3 -18.6
v -26.4 0.3 -18.6
v -26.4 3.489 -21.4
v -23.6 3.489 -21.4
v -23.6 3.489 -18.6
v -26.4 3.489 -18.6
f 273 274 278 277
f 274 275 279 278
f 275 276 280 279
f 276 273 277 280
f 277 278 279 280
f 273 276 275 274
v -26.4 0.3 -16.4
v -23.6 0.3 -16.4
v -23.6 0.3 -13.6
v -26.4 0.3 -13.6
v -26.4 2.461 -16.4
v -23.6 2.461 -16.4
v -23.6 2.461 -13.6
v -26.4 2.461 -13.6
f 281 282 286 285
f 282 283 287 286
f 283 284 288 287
f 284 281 285 288
f 285 286 287 288
f 281 284 283 282
v -26.4 0.3 -11.4
v -23.6 0.3 -11.4
v -23.6 0.3 -8.6
v -26.4 0.3 -8.6
v -26.4 3.416 -11.4
v -23.6 3.416 -11.4
v -23.6 3.416 -8.6
v -26.4 3.416 -8.6
f 289 290 294 293
f 290 291 295 294
f 291 292 296 295
f 292 289 293 296
f 293 294 295 296
f 289 292 291 290
v -26.4 0.3 -6.4
v -23.6 0.3 -6.4
v -23.6 0.3 -3.6
v -26.4 0.3 -3.6
v -26.4 4.621 -6.4
v -23.6 4.621 -6.4
v -23.6 4.621 -3.6
v -26.4 4.621 -3.6
f 297 298 302 301
f 298 299 303 302
f 299 300 304 303
f 300 297 301 304
f 301 302 303 304
f 297 300 299 298
v -26.4 0.3 -1.4
v -23.6 0.3 -1.4
v -23.6 0.3 1.4
v -26.4 0.3 1.4
v -26.4 3.458 -1.4
v -23.6 3.458 -1.4
v -23.6 3.458 1.4
v -26.4 3.458 1.4
f 305 306 310 309
f 306 307 311 310
f 307 308 312 311
f 308 305 309 312
f 309 310 311 312
f 305 308 307 306
v -26.4 0.3 3.6
v -23.6 0.3 3.6
v -23.6 0.3 6.4
v -26.4 0.3 6.4
v -26.4 11.171 3.6
v -23.6 11.171 3.6
v -23.6 11.171 6.4
v -26.4 11.171 6.4
f 313 314 318 317
f 314 315 319 318
f 315 316 320 319
f 316 313 317 320
f 317 318 319 320
f 313 316 315 314
v -26.4 0.3 8.6
v -23.6 0.3 8.6
v -23.6 0.3 11.4
v -26.4 0.3 11.4
v -26.4 5.864 8.6
v -23.6 5.864 8.6
v -23.6 5.864 11.4
v -26.4 5.864 11.4
f 321 322 326 325
f 322 323 327 326
f 323 324 328 327
f 324 321 325 328
f 325 326 327 328
f 321 324 323 322
v -26.4 0.3 13.6
v -23.6 0.3 13.6
v -23.6 0.3 16.4
v -26.4 0.3 16.4
v -26.4 7.634 13.6
v -23.6 7.634 13.6
v -23.6 7.634 16.4
v -26.4 7.634 16.4
f 329 330 334 333
f 330 331 335 334
f 331 332 336 335
f 332 329 333 336
f 333 334 335 336
f 329 332 331 330
v -26.4 0.3 18.6
v -23.6 0.3 18.6
v -23.6 0.3 21.4
v -26.4 0.3 21.4
v -26.4 9.049 18.6
v -23.6 9.049 18.6
v -23.6 9.049 21.4
v -26.4 9.049 21.4
f 337 338 342 341
f 338 339 343 342
f 339 340 344 343
f 340 337 341 344
f 341 342 343 344
f 337 340 339 338
v -26.4 0.3 23.6
v -23.6 0.3 23.6
v -23.6 0.3 26.4
v -26.4 0.3 26.4
v -26.4 2.085 23.6
v -23.6 2.085 23.6
v -23.6 2.085 26.4
v -26.4 2.085 26.4
f 345 346 350 349
f 346 347 351 350
f 347 348 352 351
f 348 345 349 352
f 349 350 351 352
f 345 348 347 346
v -26.4 0.3 28.6
v -23.6 0.3 28.6
v -23.6 0.3 31.4
v -26.4 0.3 31.4
v -26.4 2.889 28.6
v -23.6 2.889 28.6
v -23.6 2.889 31.4
v -26.4 2.889 31.4
f 353 354 358 357
f 354 355 359 358
f 355 356 360 359
f 356 353 357 360
f 357 358 359 360
f 353 356 355 354
v -26.4 0.3 33.6
v -23.6 0.3 33.6
v -23.6 0.3 36.4
v -26.4 0.3 36.4
v -26.4 4.444 33.6
v -23.6 4.444 33.6
v -23.6 4.444 36.4
v -26.4 4.444 36.4
f 361 362 366 365
f 362 363 367 366
f 363 364 368 367
f 364 361 365 368
f 365 366 367 368
f 361 364 363 362
v -21.4 0.3 -36.4
v -18.6 0.3 -36.4
v -18.6 0.3 -33.6
v -21.4 0.3 -33.6
v -21.4 4.302 -36.4
v -18.6 4.302 -36.4
v -18.6 4.302 -33.6
v -21.4 4.302 -33.6
f 369 370 374 373
f 370 371 375 374
f 371 372 376 375
f 372 369 373 376
f 373 374 375 376
f 369 372 371 370
v -21.4 0.3 -31.4
v -18.6 0.3 -31.4
v -18.6 0.3 -28.6
v -21.4 0.3 -28.6
v -21.4 3.947 -31.4
v -18.6 3.947 -31.4
v -18.6 3.947 -28.6
v -21.4 3.947 -28.6
f 377 378 382 381
f 378 379 383 382
f 379 380 384 383
f 380 377 381 384
f 381 382 383 384
f 377 380 379 378
v -21.4 0.3 -26.4
v -18.6 0.3 -26.4
v -18.6 0.3 -23.6
v -21.4 0.3 -23.6
v -21.4 2.624 -26.4
v -18.6 2.624 -26.4
v -18.6 2.624 -23.6
v -21.4 2.624 -23.6
f 385 386 390 389
f 386 387 391 390
f 387 388 392 391
f 388 385 389 392
f 389 390 391 392
f 385 388 387 386
v -21.4 0.3 -21.4
v -18.6 0.3 -21.4
v -18.6 0.3 -18.6
v -21.4 0.3 -18.6
v -21.4 10.185 -21.4
v -18.6 10.185 -21.4
v -18.6 10.185 -18.6
v -21.4 10.185 -18.6
f 393 394 398 397
f 394 395 399 398
f 395 396 400 399
f 396 393 397 400
f 397 398 399 400
f 393 396 395 394
v -21.4 0.3 -16.4
v -18.6 0.3 -16.4
v -18.6 0.3 -13.6
v -21.4 0.3 -13.6
v -21.4 2.099 -16.4
v -18.6 2.099 -16.4
v -18.6 2.099 -13.6
v -21.4 2.099 -13.6
f 401 402 406 405
f 402 403 407 406
f 403 404 408 407
f 404 401 405 408
f 405 406 407 408
f 401 404 403 402
v -21.4 0.3 -11.4
v -18.6 0.3 -11.4
v -18.6 0.3 -8.6
v -21.4 0.3 -8.6
v -21.4 4.175 -11.4
v -18.6 4.175 -11.4
v -18.6 4.175 -8.6
v -21.4 4.175 -8.6
f 409 410 414 413
f 410 411 415 414
f 411 412 416 415
f 412 409 413 416
f 413 414 415 416
f 409 412 411 410
v -21.4 0.3 -6.4
v -18.6 0.3 -6.4
v -18.6 0.3 -3.6
v -21.4 0.3 -3.6
v -21.4 4.048 -6.4
v -18.6 4.048 -6.4
v -18.6 4.048 -3.6
v -21.4 4.048 -3.6
f 417 418 422 421
f 418 419 423 422
f 419 420 424 423
f 420 417 421 424
f 421 422 423 424
f 417 420 419 418
v -21.4 0.3 -1.4
v -18.6 0.3 -1.4
v -18.6 0.3 1.4
v -21.4 0.3 1.4
v -21.4 7.942 -1.4
v -18.6 7.942 -1.4
v -18.6 7.942 1.4
v -21.4 7.942 1.4
f 425 426 430 429
f 426 427 431 430
f 427 428 432 431
f 428 425 429 432
f 429 430 431 432
f 425 428 427 426
v -21.4 0.3 3.6
v -18.6 0.3 3.6
v -18.6 0.3 6.4
v -21.4 0.3 6.4
v -21.4 11.953 3.6
v -18.6 11.953 3.6
v -18.6 11.953 6.4
v -21.4 11.953 6.4
f 433 434 438 437
f 434 435 439 438
f 435 436 440 439
f 436 433 437 440
f 437 438 439 440
f 433 436 435 434
v -21.4 0.3 8.6
v -18.6 0.3 8.6
v -18.6 0.3 11.4
v -21.4 0.3 11.4
v -21.4 5.764 8.6
v -18.6 5.764 8.6
v -18.6 5.764 11.4
v -21.4 5.764 11.4
f 441 442 446 445
f 442 443 447 446
f 443 444 448 447
f 444 441 445 448
f 445 446 447 448
f 441 444 443 442
v -21.4 0.3 13.6
v -18.6 0.3 13.6
v -18.6 0.3 16.4
v -21.4 0.3 16.4
v -21.4 2.579 13.6
v -18.6 2.579 13.6
v -18.6 2.579 16.4
v -21.4 2.579 16.4
f 449 450 454 453
f 450 451 455 454
f 451 452 456 455
f 452 449 453 456
f 453 454 455 456
f 449 452 451 450
v -21.4 0.3 18.6
v -18.6 0.3 18.6
v -18.6 0.3 21.4
v -21.4 0.3 21.4
v -21.4 4.251 18.6
v -18.6 4.251 18.6
v -18.6 4.251 21.4
v -21.4 4.251 21.4
f 457 458 462 461
f 458 459 463 462
f 459 460 464 463
f 460 457 461 464
f 461 462 463 464
f 457 460 459 458
v -21.4 0.3 23.6
v -18.6 0.3 23.6
v -18.6 0.3 26.4
v -21.4 0.3 26.4
v -21.4 3.156 23.6
v -18.6 3.156 23.6
v -18.6 3.156 26.4
v -21.4 3.156 26.4
f 465 466 470 469
f 466 467 471 470
f 467 468 472 471
f 468 465 469 472
f 469 470 471 472
f 465 468 467 466
v -21.4 0.3 28.6
v -18.6 0.3 28.6
v -18.6 0.3 31.4
v -21.4 0.3 31.4
v -21.4 3.543 28.6
v -18.6 3.543 28.6
v -18.6 3.543 31.4
v -21.4 3.543 31.4
f 473 474 478 477
f 474 475 479 478
f 475 476 480 479
f 476 473 477 480
f 477 478 479 480
f 473 476 475 474
v -21.4 0.3 33.6
v -18.6 0.3 33.6
v -18.6 0.3 36.4
v -21.4 0.3 36.4
v -21.4 3.719 33.6
v -18.6 3.719 33.6
v -18.6 3.719 36.4
v -21.4 3.719 36.4
f 481 482 486 485
f 482 483 487 486
f 483 484 488 487
f 484 481 485 488
f 485 486 487 488
f 481 484 483 482
v -16.4 0.3 -36.4
v -13.6 0.3 -36.4
v -13.6 0.3 -33.6
v -16.4 0.3 -33.6
v -16.4 3.253 -36.4
v -13.6 3.253 -36.4
v -13.6 3.253 -33.6
v -16.4 3.253 -33.6
f 489 490 494 493
f 490 491 495 494
f 491 492 496 495
f 492 489 493 496
f 493 494 495 496
f 489 492 491 490
v -16.4 0.3 -31.4
v -13.6 0.3 -31.4
v -13.6 0.3 -28.6
v -16.4 0.3 -28.6
v -16.4 5.033 -31.4
v -13.6 5.033 -31.4
v -13.6 5.033 -28.6
v -16.4 5.033 -28.6
f 497 498 502 501
f 498 499 503 502
f 499 500 504 503
f 500 497 501 504
f 501 502 503 504
f 497 500 499 498
v -16.4 0.3 -26.4
v -13.6 0.3 -26.4
v -13.6 0.3 -23.6
v -16.4 0.3 -23.6
v -16.4 6.278 -26.4
v -13.6 6.278 -26.4
v -13.6 6.278 -23.6
v -16.4 6.278 -23.6
f 505 506 510 509
f 506 507 511 510
f 507 508 512 511
f 508 505 509 512
f 509 510 511 512
f 505 508 507 506
v -16.4 0.3 -21.4
v -13.6 0.3 -21.4
v -13.6 0.3 -18.6
v -16.4 0.3 -18.6
v -16.4 3.002 -21.4
v -13.6 3.002 -21.4
v -13.6 3.002 -18.6
v -16.4 3.002 -18.6
f 513 514 518 517
f 514 515 519 518
f 515 516 520 519
f 516 513 517 520
f 517 518 519 520
f 513 516 515 514
v -16.4 0.3 -16.4
v -13.6 0.3 -16.4
v -13.6 0.3 -13.6
v -16.4 0.3 -13.6
v -16.4 11.53 -16.4
v -13.6 11.53 -16.4
v -13.6 11.53 -13.6
v -16.4 11.53 -13.6
f 521 522 526 525
f 522 523 527 526
f 523 524 528 527
f 524 521 525 528
f 525 526 527 528
f 521 524 523 522
v -16.4 0.3 -11.4
v -13.6 0.3 -11.4
v -13.6 0.3 -8.6
v -16.4 0.3 -8.6
v -16.4 5.404 -11.4
v -13.6 5.404 -11.4
v -13.6 5.404 -8.6
v -16.4 5.404 -8.6
f 529 530 534 533
f 530 531 535 534
f 531 532 536 535
f 532 529 533 536
f 533 534 535 536
f 529 532 531 530
v -16.4 0.3 -6.4
v -13.6 0.3 -6.4
v -13.6 0.3 -3.6
v -16.4 0.3 -3.6
v -16.4 11.785 -6.4
v -13.6 11.785 -6.4
v -13.6 11.785 -3.6
v -16.4 11.785 -3.6
f 537 538 542 541
f 538 539 543 542
f 539 540 544 543
f 540 537 541 544
f 541 542 543 544
f 537 540 539 538
v -16.4 0.3 -1.4
v -13.6 0.3 -1.4
v -13.6 0.3 1.4
v -16.4 0.3 1.4
v -16.4 8.081 -1.4
v -13.6 8.081 -1.4
v -13.6 8.081 1.4
v -16.4 8.081 1.4
f 545 546 550 549
f 546 547 551 550
f 547 548 552 551
f 548 545 549 552
f 549 550 551 552
f 545 548 547 546
v -16.4 0.3 3.6
v -13.6 0.3 3.6
v -13.6 0.3 6.4
v -16.4 0.3 6.4
v -16.4 7.979 3.6
v -13.6 7.979 3.6
v -13.6 7.979 6.4
v -16.4 7.979 6.4
f 553 554 558 557
f 554 555 559 558
f 555 556 560 559
f 556 553 557 560
f 557 558 559 560
f 553 556 555 554
v -16.4 0.3 8.6
v -13.6 0.3 8.6
v -13.6 0.3 11.4
v -16.4 0.3 11.4
v -16.4 6.124 8.6
v -13.6 6.124 8.6
v -13.6 6.124 11.4
v -16.4 6.124 11.4
f 561 562 566 565
f 562 563 567 566
f 563 564 568 567
f 564 561 565 568
f 565 566 567 568
f 561 564 563 562
v -16.4 0.3 13.6
v -13.6 0.3 13.6
v -13.6 0.3 16.4
v -16.4 0.3 16.4
v -16.4 5.737 13.6
v -13.6 5.737 13.6
v -13.6 5.737 16.4
v -16.4 5.737 16.4
f 569 570 574 573
f 570 571 575 574
f 571 572 576 575
f 572 569 573 576
f 573 574 575 576
f 569 572 571 570
v -16.4 0.3 18.6
v -13.6 0.3 18.6
v -13.6 0.3 21.4
v -16.4 0.3 21.4
v -16.4 7.667 18.6
v -13.6 7.667 18.6
v -13.6 7.667 21.4
v -16.4 7.667 21.4
f 577 578 582 581
f 578 579 583 582
f 579 580 584 583
f 580 577 581 584
f 581 582 583 584
f 577 580 579 578
v -16.4 0.3 23.6
v -13.6 0.3 23.6
v -13.6 0.3 26.4
v -16.4 0.3 26.4
v -16.4 10.45 23.6
v -13.6 10.45 23.6
v -13.6 10.45 26.4
v -16.4 10.45 26.4
f 585 586 590 589
f 586 587 591 590
f 587 588 592 591
f 588 585 589 592
f 589 590 591 592
f 585 588 587 586
v -16.4 0.3 28.6
v -13.6 0.3 28.6
v -13.6 0.3 31.4
v -16.4 0.3 31.4
v -16.4 3.898 28.6
v -13.6 3.898 28.6
v -13.6 3.898 31.4
v -16.4 3.898 31.4
f 593 594 598 597
f 594 595 599 598
f 595 596 600 599
f 596 593 597 600
f 597 598 599 600
f 593 596 595 594
v -16.4 0.3 33.6
v -13.6 0.3 33.6
v -13.6 0.3 36.4
v -16.4 0.3 36.4
v -16.4 6.201 33.6
v -13.6 6.201 33.6
v -13.6 6.201 36.4
v -16.4 6.201 36.4
f 601 602 606 605
f 602 603 607 606
f 603 604 608 607
f 604 601 605 608
f 605 606 607 608
f 601 604 603 602
v -11.4 0.3 -36.4
v -8.6 0.3 -36.4
v -8.6 0.3 -33.6
v -11.4 0.3 -33.6
v -11.4 2.842 -36.4
v -8.6 2.842 -36.4
v -8.6 2.842 -33.6
v -11.4 2.842 -33.6
f 609 610 614 613
f 610 611 615 614
f 611 612 616 615
f 612 609 613 616
f 613 614 615 616
f 609 612 611 610
v -11.4 0.3 -31.4
v -8.6 0.3 -31.4
v -8.6 0.3 -28.6
v -11.4 0.3 -28.6
v -11.4 5.739 -31.4
v -8.6 5.739 -31.4
v -8.6 5.739 -28.6
v -11.4 5.739 -28.6
f 617 618 622 621
f 618 619 623 622
f 619 620 624 623
f 620 617 621 624
f 621 622 623 624
f 617 620 619 618
v -11.4 0.3 -26.4
v -8.6 0.3 -26.4
v -8.6 0.3 -23.6
v -11.4 0.3 -23.6
v -11.4 3.84 -26.4
v -8.6 3.84 -26.4
v -8.6 3.84 -23.6
v -11.4 3.84 -23.6
f 625 626 630 629
f 626 627 631 630
f 627 628 632 631
f 628 625 629 632
f 629 630 631 632
f 625 628 627 626
v -11.4 0.3 -21.4
v -8.6 0.3 -21.4
v -8.6 0.3 -18.6
v -11.4 0.3 -18.6
v -11.4 3.853 -21.4
v -8.6 3.853 -21.4
v -8.6 3.853 -18.6
v -11.4 3.853 -18.6
f 633 634 638 637
f 634 635 639 638
f 635 636 640 639
f 636 633 637 640
f 637 638 639 640
f 633 636 635 634
v -11.4 0.3 -16.4
v -8.6 0.3 -16.4
v -8.6 0.3 -13.6
v -11.4 0.3 -13.6
v -11.4 4.649 -16.4
v -8.6 4.649 -16.4
v -8.6 4.649 -13.6
v -11.4 4.649 -13.6
f 641 642 646 645
f 642 643 647 646
f 643 644 648 647
f 644 641 645 648
f 645 646 647 648
f 641 644 643 642
v -11.4 0.3 -11.4
v -8.6 0.3 -11.4
v -8.6 0.3 -8.6
v -11.4 0.3 -8.6
v -11.4 10.84 -11.4
v -8.6 10.84 -11.4
v -8.6 10.84 -8.6
v -11.4 10.84 -8.6
f 649 650 654 653
f 650 651 655 654
f 651 652 656 655
f 652 649 653 656
f 653 654 655 656
f 649 652 651 650
v -11.4 0.3 -6.4
v -8.6 0.3 -6.4
v -8.6 0.3 -3.6
v -11.4 0.3 -3.6
v -11.4 12.909 -6.4
v -8.6 12.909 -6.4
v -8.6 12.909 -3.6
v -11.4 12.909 -3.6
f 657 658 662 661
f 658 659 663 662
f 659 660 664 663
f 660 657 661 664
f 661 662 663 664
f 657 660 659 658
v -11.4 0.3 -1.4
v -8.6 0.3 -1.4
v -8.6 0.3 1.4
v -11.4 0.3 1.4
v -11.4 2.408 -1.4
v -8.6 2.408 -1.4
v -8.6 2.408 1.4
v -11.4 2.408 1.4
f 665 666 670 669
f 666 667 671 670
f 667 668 672 671
f 668 665 669 672
f 669 670 671 672
f 665 668 667 666
v -11.4 0.3 3.6
v -8.6 0.3 3.6
v -8.6 0.3 6.4
v -11.4 0.3 6.4
v -11.4 11.771 3.6
v -8.6 11.771 3.6
v -8.6 11.771 6.4
v -11.4 11.771 6.4
f 673 674 678 677
f 674 675 679 678
f 675 676 680 679
f 676 673 677 680
f 677 678 679 680
f 673 676 675 674
v -11.4 0.3 8.6
v -8.6 0.3 8.6
v -8.6 0.3 11.4
v -11.4 0.3 11.4
v -11.4 2.214 8.6
v -8.6 2.214 8.6
v -8.6 2.214 11.4
v -11.4 2.214 11.4
f 681 682 686 685
f 682 683 687 686
f 683 684 688 687
f 684 681 685 688
f 685 686 687 688
f 681 684 683 682
v -11.4 0.3 13.6
v -8.6 0.3 13.6
v -8.6 0.3 16.4
v -11.4 0.3 16.4
v -11.4 4.817 13.6
v -8.6 4.817 13.6
v -8.6 4.817 16.4
v -11.4 4.817 16.4
f 689 690 694 693
f 690 691 695 694
f 691 692 696 695
f 692 689 693 696
f 693 694 695 696
f 689 692 691 690
v -11.4 0.3 18.6
v -8.6 0.3 18.6
v -8.6 0.3 21.4
v -11.4 0.3 21.4
v -11.4 2.543 18.6
v -8.6 2.543 18.6
v -8.6 2.543 21.4
v -11.4 2.543 21.4
f 697 698 702 701
f 698 699 703 702
f 699 700 704 703
f 700 697 701 704
f 701 702 703 704
f 697 700 699 698
v -11.4 0.3 23.6
v -8.6 0.3 23.6
v -8.6 0.3 26.4
v -11.4 0.3 26.4
v -11.4 2.166 23.6
v -8.6 2.166 23.6
v -8.6 2.166 26.4
v -11.4 2.166 26.4
f 705 706 710 709
f 706 707 711 710
f 707 708 712 711
f 708 705 709 712
f 709 710 711 712
f 705 708 707 706
v -11.4 0.3 28.6
v -8.6 0.3 28.6
v -8.6 0.3 31.4
v -11.4 0.3 31.4
v -11.4 10.719 28.6
v -8.6 10.719 28.6
v -8.6 10.719 31.4
v -11.4 10.719 31.4
f 713 714 718 717
f 714 715 719 718
f 715 716 720 719
f 716 713 717 720
f 717 718 719 720
f 713 716 715 714
v -11.4 0.3 33.6
v -8.6 0.3 33.6
v -8.6 0.3 36.4
v -11.4 0.3 36.4
v -11.4 2.681 33.6
v -8.6 2.681 33.6
v -8.6 2.681 36.4
v -11.4 2.681 36.4
f 721 722 726 725
f 722 723 727 726
f 723 724 728 727
f 724 721 725 728
f 725 726 727 728
f 721 724 723 722
v -6.4 0.3 -36.4
v -3.6 0.3 -36.4
v -3.6 0.3 -33.6
v -6.4 0.3 -33.6
v -6.4 5.804 -36.4
v -3.6 5.804 -36.4
v -3.6 5.804 -33.6
v -6.4 5.804 -33.6
f 729 730 734 733
f 730 731 735 734
f 731 732 736 735
f 732 729 733 736
f 733 734 735 736
f 729 732 731 730
v -6.4 0.3 -31.4
v -3.6 0.3 -31.4
v -3.6 0.3 -28.6
v -6.4 0.3 -28.6
v -6.4 2.408 -31.4
v -3.6 2.408 -31.4
v -3.6 2.408 -28.6
v -6.4 2.408 -28.6
f 737 738 742 741
f 738 739 743 742
f 739 740 744 743
f 740 737 741 744
f 741 742 743 744
f 737 740 739 738
v -6.4 0.3 -26.4
v -3.6 0.3 -26.4
v -3.6 0.3 -23.6
v -6.4 0.3 -23.6
v -6.4 4.907 -26.4
v -3.6 4.907 -26.4
v -3.6 4.907 -23.6
v -6.4 4.907 -23.6
f 745 746 750 749
f 746 747 751 750
f 747 748 752 751
f 748 745 749 752
f 749 750 751 752
f 745 748 747 746
v -6.4 0.3 -21.4
v -3.6 0.3 -21.4
v -3.6 0.3 -18.6
v -6.4 0.3 -18.6
v -6.4 6.891 -21.4
v -3.6 6.891 -21.4
v -3.6 6.891 -18.6
v -6.4 6.891 -18.6
f 753 754 758 757
f 754 755 759 758
f 755 756 760 759
f 756 753 757 760
f 757 758 759 760
f 753 756 755 754
v -6.4 0.3 -16.4
v -3.6 0.3 -16.4
v -3.6 0.3 -13.6
v -6.4 0.3 -13.6
v -6.4 2.52 -16.4
v -3.6 2.52 -16.4
v -3.6 2.52 -13.6
v -6.4 2.52 -13.6
f 761 762 766 765
f 762 763 767 766
f 763 764 768 767
f 764 761 765 768
f 765 766 767 768
f 761 764 763 762
v -6.4 0.3 -11.4
v -3.6 0.3 -11.4
v -3.6 0.3 -8.6
v -6.4 0.3 -8.6
v -6.4 13.804 -11.4
v -3.6 13.804 -11.4
v -3.6 13.804 -8.6
v -6.4 13.804 -8.6
f 769 770 774 773
f 770 771 775 774
f 771 772 776 775
f 772 769 773 776
f 773 774 775 776
f 769 772 771 770
v -6.4 0.3 8.6
v -3.6 0.3 8.6
v -3.6 0.3 11.4
v -6.4 0.3 11.4
v -6.4 13.049 8.6
v -3.6 13.049 8.6
v -3.6 13.049 11.4
v -6.4 13.049 11.4
f 777 778 782 781
f 778 779 783 782
f 779 780 784 783
f 780 777 781 784
f 781 782 783 784
f 777 780 779 778
v -6.4 0.3 13.6
v -3.6 0.3 13.6
v -3.6 0.3 16.4
v -6.4 0.3 16.4
v -6.4 12.29 13.6
v -3.6 12.29 13.6
v -3.6 12.29 16.4
v -6.4 12.29 16.4
f 785 786 790 789
f 786 787 791 790
f 787 788 792 791
f 788 785 789 792
f 789 790 791 792
f 785 788 787 786
v -6.4 0.3 18.6
v -3.6 0.3 18.6
v -3.6 0.3 21.4
v -6.4 0.3 21.4
v -6.4 11.287 18.6
v -3.6 11.287 18.6
v -3.6 11.287 21.4
v -6.4 11.287 21.4
f 793 794 798 797
f 794 795 799 798
f 795 796 800 799
f 796 793 797 800
f 797 798 799 800
f 793 796 795 794
v -6.4 0.3 23.6
v -3.6 0.3 23.6
v -3.6 0.3 26.4
v -6.4 0.3 26.4
v -6.4 10.713 23.6
v -3.6 10.713 23.6
v -3.6 10.713 26.4
v -6.4 10.713 26.4
f 801 802 806 805
f 802 803 807 806
f 803 804 808 807
f 804 801 805 808
f 805 806 807 808
f 801 804 803 802
v -6.4 0.3 28.6
v -3.6 0.3 28.6
v -3.6 0.3 31.4
v -6.4 0.3 31.4
v -6.4 7.847 28.6
v -3.6 7.847 28.6
v -3.6 7.847 31.4
v -6.4 7.847 31.4
f 809 810 814 813
f 810 811 815 814
f 811 812 816 815
f 812 809 813 816
f 813 814 815 816
f 809 812 811 810
v -6.4 0.3 33.6
v -3.6 0.3 33.6
v -3.6 0.3 36.4
v -6.4 0.3 36.4
v -6.4 3.006 33.6
v -3.6 3.006 33.6
v -3.6 3.006 36.4
v -6.4 3.006 36.4
f 817 818 822 821
f 818 819 823 822
f 819 820 824 823
f 820 817 821 824
f 821 822 823 824
f 817 820 819 818
v -1.4 0.3 -36.4
v 1.4 0.3 -36.4
v 1.4 0.3 -33.6
v -1.4 0.3 -33.6
v -1.4 2.005 -36.4
v 1.4 2.005 -36.4
v 1.4 2.005 -33.6
v -1.4 2.005 -33.6
f 825 826 830 829
f 826 827 831 830
f 827 828 832 831
f 828 825 829 832
f 829 830 831 832
f 825 828 827 826
v -1.4 0.3 -31.4
v 1.4 0.3 -31.4
v 1.4 0.3 -28.6
v -1.4 0.3 -28.6
v -1.4 2.984 -31.4
v 1.4 2.984 -31.4
v 1.4 2.984 -28.6
v -1.4 2.984 -28.6
f 833 834 838 837
f 834 835 839 838
f 835 836 840 839
f 836 833 837 840
f 837 838 839 840
f 833 836 835 834
v -1.4 0.3 -26.4
v 1.4 0.3 -26.4
v 1.4 0.3 -23.6
v -1.4 0.3 -23.6
v -1.4 2.167 -26.4
v 1.4 2.167 -26.4
v 1.4 2.167 -23.6
v -1.4 2.167 -23.6
f 841 842 846 845
f 842 843 847 846
f 843 844 848 847
f 844 841 845 848
f 845 846 847 848
f 841 844 843 842
v -1.4 0.3 -21.4
v 1.4 0.3 -21.4
v 1.4 0.3 -18.6
v -1.4 0.3 -18.6
v -1.4 2 -21.4
v 1.4 2 -21.4
v 1.4 2 -18.6
v -1.4 2 -18.6
f 849 850 854 853
f 850 851 855 854
f 851 852 856 855
f 852 849 853 856
f 853 854 855 856
f 849 852 851 850
v -1.4 0.3 -16.4
v 1.4 0.3 -16.4
v 1.4 0.3 -13.6
v -1.4 0.3 -13.6
v -1.4 7.803 -16.4
v 1.4 7.803 -16.4
v 1.4 7.803 -13.6
v -1.4 7.803 -13.6
f 857 858 862 861
f 858 859 863 862
f 859 860 864 863
f 860 857 861 864
f 861 862 863 864
f 857 860 859 858
v -1.4 0.3 -11.4
v 1.4 0.3 -11.4
v 1.4 0.3 -8.6
v -1.4 0.3 -8.6
v -1.4 3.319 -11.4
v 1.4 3.319 -11.4
v 1.4 3.319 -8.6
v -1.4 3.319 -8.6
f 865 866 870 869
f 866 867 871 870
f 867 868 872 871
f 868 865 869 872
f 869 870 871 872
f 865 868 867 866
v -1.4 0.3 8.6
v 1.4 0.3 8.6
v 1.4 0.3 11.4
v -1.4 0.3 11.4
v -1.4 10.492 8.6
v 1.4 10.492 8.6
v 1.4 10.492 11.4
v -1.4 10.492 11.4
f 873 874 878 877
f 874 875 879 878
f 875 876 880 879
f 876 873 877 880
f 877 878 879 880
f 873 876 875 874
v -1.4 0.3 13.6
v 1.4 0.3 13.6
v 1.4 0.3 16.4
v -1.4 0.3 16.4
v -1.4 6.007 13.6
v 1.4 6.007 13.6
v 1.4 6.007 16.4
v -1.4 6.007 16.4
f 881 882 886 885
f 882 883 887 886
f 883 884 888 887
f 884 881 885 888
f 885 886 887 888
f 881 884 883 882
v -1.4 0.3 18.6
v 1.4 0.3 18.6
v 1.4 0.3 21.4
v -1.4 0.3 21.4
v -1.4 8.276 18.6
v 1.4 8.276 18.6
v 1.4 8.276 21.4
v -1.4 8.276 21.4
f 889 890 894 893
f 890 891 895 894
f 891 892 896 895
f 892 889 893 896
f 893 894 895 896
f 889 892 891 890
v -1.4 0.3 23.6
v 1.4 0.3 23.6
v 1.4 0.3 26.4
v -1.4 0.3 26.4
v -1.4 3.035 23.6
v 1.4 3.035 23.6
v 1.4 3.035 26.4
v -1.4 3.035 26.4
f 897 898 902 901
f 898 899 903 902
f 899 900 904 903
f 900 897 901 904
f 901 902 903 904
f 897 900 899 898
v -1.4 0.3 28.6
v 1.4 0.3 28.6
v 1.4 0.3 31.4
v -1.4 0.3 31.4
v -1.4 9.48 28.6
v 1.4 9.48 28.6
v 1.4 9.48 31.4
v -1.4 9.48 31.4
f 905 906 910 909
f 906 907 911 910
f 907 908 912 911
f 908 905 909 912
f 909 910 911 912
f 905 908 907 906
v -1.4 0.3 33.6
v 1.4 0.3 33.6
v 1.4 0.3 36.4
v -1.4 0.3 36.4
v -1.4 2.789 33.6
v 1.4 2.789 33.6
v 1.4 2.789 36.4
v -1.4 2.789 36.4
f 913 914 918 917
f 914 915 919 918
f 915 916 920 919
f 916 913 917 920
f 917 918 919 920
f 913 916 915 914
v 3.6 0.3 -36.4
v 6.4 0.3 -36.4
v 6.4 0.3 -33.6
v 3.6 0.3 -33.6
v 3.6 3.641 -36.4
v 6.4 3.641 -36.4
v 6.4 3.641 -33.6
v 3.6 3.641 -33.6
f 921 922 926 925
f 922 923 927 926
f 923 924 928 927
f 924 921 925 928
f 925 926 927 928
f 921 924 923 922
v 3.6 0.3 -31.4
v 6.4 0.3 -31.4
v 6.4 0.3 -28.6
v 3.6 0.3 -28.6
v 3.6 9.567 -31.4
v 6.4 9.567 -31.4
v 6.4 9.567 -28.6
v 3.6 9.567 -28.6
f 929 930 934 933
f 930 931 935 934
f 931 932 936 935
f 932 929 933 936
f 933 934 935 936
f 929 932 931 930
v 3.6 0.3 -26.4
v 6.4 0.3 -26.4
v 6.4 0.3 -23.6
v 3.6 0.3 -23.6
v 3.6 2.335 -26.4
v 6.4 2.335 -26.4
v 6.4 2.335 -23.6
v 3.6 2.335 -23.6
f 937 938 942 941
f 938 939 943 942
f 939 940 944 943
f 940 937 941 944
f 941 942 943 944
f 937 940 939 938
v 3.6 0.3 -21.4
v 6.4 0.3 -21.4
v 6.4 0.3 -18.6
v 3.6 0.3 -18.6
v 3.6 5.596 -21.4
v 6.4 5.596 -21.4
v 6.4 5.596 -18.6
v 3.6 5.596 -18.6
f 945 946 950 949
f 946 947 951 950
f 947 948 952 951
f 948 945 949 952
f 949 950 951 952
f 945 948 947 946
v 3.6 0.3 -16.4
v 6.4 0.3 -16.4
v 6.4 0.3 -13.6
v 3.6 0.3 -13.6
v 3.6 2.001 -16.4
v 6.4 2.001 -16.4
v 6.4 2.001 -13.6
v 3.6 2.001 -13.6
f 953 954 958 957
f 954 955 959 958
f 955 956 960 959
f 956 953 957 960
f 957 958 959 960
f 953 956 955 954
v 3.6 0.3 -11.4
v 6.4 0.3 -11.4
v 6.4 0.3 -8.6
v 3.6 0.3 -8.6
v 3.6 13.622 -11.4
v 6.4 13.622 -11.4
v 6.4 13.622 -8.6
v 3.6 13.622 -8.6
f 961 962 966 965
f 962 963 967 966
f 963 964 968 967
f 964 961 965 968
f 965 966 967 968
f 961 964 963 962
v 3.6 0.3 8.6
v 6.4 0.3 8.6
v 6.4 0.3 11.4
v 3.6 0.3 11.4
v 3.6 8.533 8.6
v 6.4 8.533 8.6
v 6.4 8.533 11.4
v 3.6 8.533 11.4
f 969 970 974 973
f 970 971 975 974
f 971 972 976 975
f 972 969 973 976
f 973 974 975 976
f 969 972 971 970
v 3.6 0.3 13.6
v 6.4 0.3 13.6
v 6.4 0.3 16.4
v 3.6 0.3 16.4
v 3.6 12.879 13.6
v 6.4 12.879 13.6
v 6.4 12.879 16.4
v 3.6 12.879 16.4
f 977 978 982 981
f 978 979 983 982
f 979 980 984 983
f 980 977 981 984
f 981 982 983 984
f 977 980 979 978
v 3.6 0.3 18.6
v 6.4 0.3 18.6
v 6.4 0.3 21.4
v 3.6 0.3 21.4
v 3.6 2.023 18.6
v 6.4 2.023 18.6
v 6.4 2.023 21.4
v 3.6 2.023 21.4
f 985 986 990 989
f 986 987 991 990
f 987 988 992 991
f 988 985 989 992
f 989 990 991 992
f 985 988 987 986
v 3.6 0.3 23.6
v 6.4 0.3 23.6
v 6.4 0.3 26.4
v 3.6 0.3 26.4
v 3.6 10.595 23.6
v 6.4 10.595 23.6
v 6.4 10.595 26.4
v 3.6 10.595 26.4
f 993 994 998 997
f 994 995 999 998
f 995 996 1000 999
f 996 993 997 1000
f 997 998 999 1000
f 993 996 995 994
v 3.6 0.3 28.6
v 6.4 0.3 28.6
v 6.4 0.3 31.4
v 3.6 0.3 31.4
v 3.6 2.625 28.6
v 6.4 2.625 28.6
v 6.4 2.625 31.4
v 3.6 2.625 31.4
f 1001 1002 1006 1005
f 1002 1003 1007 1006
f 1003 1004 1008 1007
f 1004 1001 1005 1008
f 1005 1006 1007 1008
f 1001 1004 1003 1002
v 3.6 0.3 33.6
v 6.4 0.3 33.6
v 6.4 0.3 36.4
v 3.6 0.3 36.4
v 3.6 9.526 33.6
v 6.4 9.526 33.6
v 6.4 9.526 36.4
v 3.6 9.526 36.4
f 1009 1010 1014 1013
f 1010 1011 1015 1014
f 1011 1012 1016 1015
f 1012 1009 1013 1016
f 1013 1014 1015 1016
f 1009 1012 1011 1010
v 8.6 0.3 -36.4
v 11.4 0.3 -36.4
v 11.4 0.3 -33.6
v 8.6 0.3 -33.6
v 8.6 5.083 -36.4
v 11.4 5.083 -36.4
v 11.4 5.083 -33.6
v 8.6 5.083 -33.6
f 1017 1018 1022 1021
f 1018 1019 1023 1022
f 1019 1020 1024 1023
f 1020 1017 1021 1024
f 1021 1022 1023 1024
f 1017 1020 1019 1018
v 8.6 0.3 -31.4
v 11.4 0.3 -31.4
v 11.4 0.3 -28.6
v 8.6 0.3 -28.6
v 8.6 6.726 -31.4
v 11.4 6.726 -31.4
v 11.4 6.726 -28.6
v 8.6 6.726 -28.6
f 1025 1026 1030 1029
f 1026 1027 1031 1030
f 1027 1028 1032 1031
f 1028 1025 1029 1032
f 1029 1030 1031 1032
f 1025 1028 1027 1026
v 8.6 0.3 -26.4
v 11.4 0.3 -26.4
v 11.4 0.3 -23.6
v 8.6 0.3 -23.6
v 8.6 3.185 -26.4
v 11.4 3.185 -26.4
v 11.4 3.185 -23.6
v 8.6 3.185 -23.6
f 1033 1034 1038 1037
f 1034 1035 1039 1038
f 1035 1036 1040 1039
f 1036 1033 1037 1040
f 1037 1038 1039 1040
f 1033 1036 1035 1034
v 8.6 0.3 -21.4
v 11.4 0.3 -21.4
v 11.4 0.3 -18.6
v 8.6 0.3 -18.6
v 8.6 2.985 -21.4
v 11.4 2.985 -21.4
v 11.4 2.985 -18.6
v 8.6 2.985 -18.6
f 1041 1042 1046 1045
f 1042 1043 1047 1046
f 1043 1044 1048 1047
f 1044 1041 1045 1048
f 1045 1046 1047 1048
f 1041 1044 1043 1042
v 8.6 0.3 -16.4
v 11.4 0.3 -16.4
v 11.4 0.3 -13.6
v 8.6 0.3 -13.6
v 8.6 2.97 -16.4
v 11.4 2.97 -16.4
v 11.4 2.97 -13.6
v 8.6 2.97 -13.6
f 1049 1050 1054 1053
f 1050 1051 1055 1054
f 1051 1052 1056 1055
f 1052 1049 1053 1056
f 1053 1054 1055 1056
f 1049 1052 1051 1050
v 8.6 0.3 -11.4
v 11.4 0.3 -11.4
v 11.4 0.3 -8.6
v 8.6 0.3 -8.6
v 8.6 7.113 -11.4
v 11.4 7.113 -11.4
v 11.4 7.113 -8.6
v 8.6 7.113 -8.6
f 1057 1058 1062 1061
f 1058 1059 1063 1062
f 1059 1060 1064 1063
f 1060 1057 1061 1064
f 1061 1062 1063 1064
f 1057 1060 1059 1058
v 8.6 0.3 -6.4
v 11.4 0.3 -6.4
v 11.4 0.3 -3.6
v 8.6 0.3 -3.6
v 8.6 2.12 -6.4
v 11.4 2.12 -6.4
v 11.4 2.12 -3.6
v 8.6 2.12 -3.6
f 1065 1066 1070 1069
f 1066 1067 1071 1070
f 1067 1068 1072 1071
f 1068 1065 1069 1072
f 1069 1070 1071 1072
f 1065 1068 1067 1066
v 8.6 0.3 -1.4
v 11.4 0.3 -1.4
v 11.4 0.3 1.4
v 8.6 0.3 1.4
v 8.6 11.016 -1.4
v 11.4 11.016 -1.4
v 11.4 11.016 1.4
v 8.6 11.016 1.4
f 1073 1074 1078 1077
f 1074 1075 1079 1078
f 1075 1076 1080 1079
f 1076 1073 1077 1080
f 1077 1078 1079 1080
f 1073 1076 1075 1074
v 8.6 0.3 3.6
v 11.4 0.3 3.6
v 11.4 0.3 6.4
v 8.6 0.3 6.4
v 8.6 9.61 3.6
v 11.4 9.61 3.6
v 11.4 9.61 6.4
v 8.6 9.61 6.4
f 1081 1082 1086 1085
f 1082 1083 1087 1086
f 1083 1084 1088 1087
f 1084 1081 1085 1088
f 1085 1086 1087 1088
f 1081 1084 1083 1082
v 8.6 0.3 8.6
v 11.4 0.3 8.6
v 11.4 0.3 11.4
v 8.6 0.3 11.4
v 8.6 9.449 8.6
v 11.4 9.449 8.6
v 11.4 9.449 11.4
v 8.6 9.449 11.4
f 1089 1090 1094 1093
f 1090 1091 1095 1094
f 1091 1092 1096 1095
f 1092 1089 1093 1096
f 1093 1094 1095 1096
f 1089 1092 1091 1090
v 8.6 0.3 13.6
v 11.4 0.3 13.6
v 11.4 0.3 16.4
v 8.6 0.3 16.4
v 8.6 5.896 13.6
v 11.4 5.896 13.6
v 11.4 5.896 16.4
v 8.6 5.896 16.4
f 1097 1098 1102 1101
f 1098 1099 1103 1102
f 1099 1100 1104 1103
f 1100 1097 1101 1104
f 1101 1102 1103 1104
f 1097 1100 1099 1098
v 8.6 0.3 18.6
v 11.4 0.3 18.6
v 11.4 0.3 21.4
v 8.6 0.3 21.4
v 8.6 2.046 18.6
v 11.4 2.046 18.6
v 11.4 2.046 21.4
v 8.6 2.046 21.4
f 1105 1106 1110 1109
f 1106 1107 1111 1110
f 1107 1108 1112 1111
f 1108 1105 1109 1112
f 1109 1110 1111 1112
f 1105 1108 1107 1106
v 8.6 0.3 23.6
v 11.4 0.3 23.6
v 11.4 0.3 26.4
v 8.6 0.3 26.4
v 8.6 2.289 23.6
v 11.4 2.289 23.6
v 11.4 2.289 26.4
v 8.6 2.289 26.4
f 1113 1114 1118 1117
f 1114 1115 1119 1118
f 1115 1116 1120 1119
f 1116 1113 1117 1120
f 1117 1118 1119 1120
f 1113 1116 1115 1114
v 8.6 0.3 28.6
v 11.4 0.3 28.6
v 11.4 0.3 31.4
v 8.6 0.3 31.4
v 8.6 9.663 28.6
v 11.4 9.663 28.6
v 11.4 9.663 31.4
v 8.6 9.663 31.4
f 1121 1122 1126 1125
f 1122 1123 1127 1126
f 1123 1124 1128 1127
f 1124 1121 1125 1128
f 1125 1126 1127 1128
f 1121 1124 1123 1122
v 8.6 0.3 33.6
v 11.4 0.3 33.6
v 11.4 0.3 36.4
v 8.6 0.3 36.4
v 8.6 2.296 33.6
v 11.4 2.296 33.6
v 11.4 2.296 36.4
v 8.6 2.296 36.4
f 1129 1130 1134 1133
f 1130 1131 1135 1134
f 1131 1132 1136 1135
f 1132 1129 1133 1136
f 1133 1134 1135 1136
f 1129 1132 1131 1130
v 13.6 0.3 -36.4
v 16.4 0.3 -36.4
v 16.4 0.3 -33.6
v 13.6 0.3 -33.6
v 13.6 6.01 -36.4
v 16.4 6.01 -36.4
v 16.4 6.01 -33.6
v 13.6 6.01 -33.6
f 1137 1138 1142 1141
f 1138 1139 1143 1142
f 1139 1140 1144 1143
f 1140 1137 1141 1144
f 1141 1142 1143 1144
f 1137 1140 1139 1138
v 13.6 0.3 -31.4
v 16.4 0.3 -31.4
v 16.4 0.3 -28.6
v 13.6 0.3 -28.6
v 13.6 8.954 -31.4
v 16.4 8.954 -31.4
v 16.4 8.954 -28.6
v 13.6 8.954 -28.6
f 1145 1146 1150 1149
f 1146 1147 1151 1150
f 1147 1148 1152 1151
f 1148 1145 1149 1152
f 1149 1150 1151 1152
f 1145 1148 1147 1146
v 13.6 0.3 -26.4
v 16.4 0.3 -26.4
v 16.4 0.3 -23.6
v 13.6 0.3 -23.6
v 13.6 2.048 -26.4
v 16.4 2.048 -26.4
v 16.4 2.048 -23.6
v 13.6 2.048 -23.6
f 1153 1154 1158 1157
f 1154 1155 1159 1158
f 1155 1156 1160 1159
f 1156 1153 1157 1160
f 1157 1158 1159 1160
f 1153 1156 1155 1154
v 13.6 0.3 -21.4
v 16.4 0.3 -21.4
v 16.4 0.3 -18.6
v 13.6 0.3 -18.6
v 13.6 10.431 -21.4
v 16.4 10.431 -21.4
v 16.4 10.431 -18.6
v 13.6 10.431 -18.6
f 1161 1162 1166 1165
f 1162 1163 1167 1166
f 1163 1164 1168 1167
f 1164 1161 1165 1168
f 1165 1166 1167 1168
f 1161 1164 1163 1162
v 13.6 0.3 -16.4
v 16.4 0.3 -16.4
v 16.4 0.3 -13.6
v 13.6 0.3 -13.6
v 13.6 10.783 -16.4
v 16.4 10.783 -16.4
v 16.4 10.783 -13.6
v 13.6 10.783 -13.6
f 1169 1170 1174 1173
f 1170 1171 1175 1174
f 1171 1172 1176 1175
f 1172 1169 1173 1176
f 1173 1174 1175 1176
f 1169 1172 1171 1170
v 13.6 0.3 -11.4
v 16.4 0.3 -11.4
v 16.4 0.3 -8.6
v 13.6 0.3 -8.6
v 13.6 13.742 -11.4
v 16.4 13.742 -11.4
v 16.4 13.742 -8.6
v 13.6 13.742 -8.6
f 1177 1178 1182 1181
f 1178 1179 1183 1182
f 1179 1180 1184 1183
f 1180 1177 1181 1184
f 1181 1182 1183 1184
f 1177 1180 1179 1178
v 13.6 0.3 -6.4
v 16.4 0.3 -6.4
v 16.4 0.3 -3.6
v 13.6 0.3 -3.6
v 13.6 13.493 -6.4
v 16.4 13.493 -6.4
v 16.4 13.493 -3.6
v 13.6 13.493 -3.6
f 1185 1186 1190 1189
f 1186 1187 1191 1190
f 1187 1188 1192 1191
f 1188 1185 1189 1192
f 1189 1190 1191 1192
f 1185 1188 1187 1186
v 13.6 0.3 -1.4
v 16.4 0.3 -1.4
v 16.4 0.3 1.4
v 13.6 0.3 1.4
v 13.6 10.187 -1.4
v 16.4 10.187 -1.4
v 16.4 10.187 1.4
v 13.6 10.187 1.4
f 1193 1194 1198 1197
f 1194 1195 1199 1198
f 1195 1196 1200 1199
f 1196 1193 1197 1200
f 1197 1198 1199 1200
f 1193 1196 1195 1194
v 13.6 0.3 3.6
v 16.4 0.3 3.6
v 16.4 0.3 6.4
v 13.6 0.3 6.4
v 13.6 5.087 3.6
v 16.4 5.087 3.6
v 16.4 5.087 6.4
v 13.6 5.087 6.4
f 1201 1202 1206 1205
f 1202 1203 1207 1206
f 1203 1204 1208 1207
f 1204 1201 1205 1208
f 1205 1206 1207 1208
f 1201 1204 1203 1202
v 13.6 0.3 8.6
v 16.4 0.3 8.6
v 16.4 0.3 11.4
v 13.6 0.3 11.4
v 13.6 3.278 8.6
v 16.4 3.278 8.6
v 16.4 3.278 11.4
v 13.6 3.278 11.4
f 1209 1210 1214 1213
f 1210 1211 1215 1214
f 1211 1212 1216 1215
f 1212 1209 1213 1216
f 1213 1214 1215 1216
f 1209 1212 1211 1210
v 13.6 0.3 13.6
v 16.4 0.3 13.6
v 16.4 0.3 16.4
v 13.6 0.3 16.4
v 13.6 8.705 13.6
v 16.4 8.705 13.6
v 16.4 8.705 16.4
v 13.6 8.705 16.4
f 1217 1218 1222 1221
f 1218 1219 1223 1222
f 1219 1220 1224 1223
f 1220 1217 1221 1224
f 1221 1222 1223 1224
f 1217 1220 1219 1218
v 13.6 0.3 18.6
v 16.4 0.3 18.6
v 16.4 0.3 21.4
v 13.6 0.3 21.4
v 13.6 10.417 18.6
v 16.4 10.417 18.6
v 16.4 10.417 21.4
v 13.6 10.417 21.4
f 1225 1226 1230 1229
f 1226 1227 1231 1230
f 1227 1228 1232 1231
f 1228 1225 1229 1232
f 1229 1230 1231 1232
f 1225 1228 1227 1226
v 13.6 0.3 23.6
v 16.4 0.3 23.6
v 16.4 0.3 26.4
v 13.6 0.3 26.4
v 13.6 4.14 23.6
v 16.4 4.14 23.6
v 16.4 4.14 26.4
v 13.6 4.14 26.4
f 1233 1234 1238 1237
f 1234 1235 1239 1238
f 1235 1236 1240 1239
f 1236 1233 1237 1240
f 1237 1238 1239 1240
f 1233 1236 1235 1234
v 13.6 0.3 28.6
v 16.4 0.3 28.6
v 16.4 0.3 31.4
v 13.6 0.3 31.4
v 13.6 2.82 28.6
v 16.4 2.82 28.6
v 16.4 2.82 31.4
v 13.6 2.82 31.4
f 1241 1242 1246 1245
f 1242 1243 1247 1246
f 1243 1244 1248 1247
f 1244 1241 1245 1248
f 1245 1246 1247 1248
f 1241 1244 1243 1242
v 13.6 0.3 33.6
v 16.4 0.3 33.6
v 16.4 0.3 36.4
v 13.6 0.3 36.4
v 13.6 3.717 33.6
v 16.4 3.717 33.6
v 16.4 3.717 36.4
v 13.6 3.717 36.4
f 1249 1250 1254 1253
f 1250 1251 1255 1254
f 1251 1252 1256 1255
f 1252 1249 1253 1256
f 1253 1254 1255 1256
f 1249 1252 1251 1250
v 18.6 0.3 -36.4
v 21.4 0.3 -36.4
v 21.4 0.3 -33.6
v 18.6 0.3 -33.6
v 18.6 7.601 -36.4
v 21.4 7.601 -36.4
v 21.4 7.601 -33.6
v 18.6 7.601 -33.6
f 1257 1258 1262 1261
f 1258 1259 1263 1262
f 1259 1260 1264 1263
f 1260 1257 1261 1264
f 1261 1262 1263 1264
f 1257 1260 1259 1258
v 18.6 0.3 -31.4
v 21.4 0.3 -31.4
v 21.4 0.3 -28.6
v 18.6 0.3 -28.6
v 18.6 5.058 -31.4
v 21.4 5.058 -31.4
v 21.4 5.058 -28.6
v 18.6 5.058 -28.6
f 1265 1266 1270 1269
f 1266 1267 1271 1270
f 1267 1268 1272 1271
f 1268 1265 1269 1272
f 1269 1270 1271 1272
f 1265 1268 1267 1266
v 18.6 0.3 -26.4
v 21.4 0.3 -26.4
v 21.4 0.3 -23.6
v 18.6 0.3 -23.6
v 18.6 3.629 -26.4
v 21.4 3.629 -26.4
v 21.4 3.629 -23.6
v 18.6 3.629 -23.6
f 1273 1274 1278 1277
f 1274 1275 1279 1278
f 1275 1276 1280 1279
f 1276 1273 1277 1280
f 1277 1278 1279 1280
f 1273 1276 1275 1274
v 18.6 0.3 -21.4
v 21.4 0.3 -21.4
v 21.4 0.3 -18.6
v 18.6 0.3 -18.6
v 18.6 6.455 -21.4
v 21.4 6.455 -21.4
v 21.4 6.455 -18.6
v 18.6 6.455 -18.6
f 1281 1282 1286 1285
f 1282 1283 1287 1286
f 1283 1284 1288 1287
f 1284 1281 1285 1288
f 1285 1286 1287 1288
f 1281 1284 1283 1282
v 18.6 0.3 -16.4
v 21.4 0.3 -16.4
v 21.4 0.3 -13.6
v 18.6 0.3 -13.6
v 18.6 8.283 -16.4
v 21.4 8.283 -16.4
v 21.4 8.283 -13.6
v 18.6 8.283 -13.6
f 1289 1290 1294 1293
f 1290 1291 1295 1294
f 1291 1292 1296 1295
f 1292 1289 1293 1296
f 1293 1294 1295 1296
f 1289 1292 1291 1290
v 18.6 0.3 -11.4
v 21.4 0.3 -11.4
v 21.4 0.3 -8.6
v 18.6 0.3 -8.6
v 18.6 3.893 -11.4
v 21.4 3.893 -11.4
v 21.4 3.893 -8.6
v 18.6 3.893 -8.6
f 1297 1298 1302 1301
f 1298 1299 1303 1302
f 1299 1300 1304 1303
f 1300 1297 1301 1304
f 1301 1302 1303 1304
f 1297 1300 1299 1298
v 18.6 0.3 -6.4
v 21.4 0.3 -6.4
v 21.4 0.3 -3.6
v 18.6 0.3 -3.6
v 18.6 8.751 -6.4
v 21.4 8.751 -6.4
v 21.4 8.751 -3.6
v 18.6 8.751 -3.6
f 1305 1306 1310 1309
f 1306 1307 1311 1310
f 1307 1308 1312 1311
f 1308 1305 1309 1312
f 1309 1310 1311 1312
f 1305 1308 1307 1306
v 18.6 0.3 -1.4
v 21.4 0.3 -1.4
v 21.4 0.3 1.4
v 18.6 0.3 1.4
v 18.6 4.882 -1.4
v 21.4 4.882 -1.4
v 21.4 4.882 1.4
v 18.6 4.882 1.4
f 1313 1314 1318 1317
f 1314 1315 1319 1318
f 1315 1316 1320 1319
f 1316 1313 1317 1320
f 1317 1318 1319 1320
f 1313 1316 1315 1314
v 18.6 0.3 3.6
v 21.4 0.3 3.6
v 21.4 0.3 6.4
v 18.6 0.3 6.4
v 18.6 2.85 3.6
v 21.4 2.85 3.6
v 21.4 2.85 6.4
v 18.6 2.85 6.4
f 1321 1322 1326 1325
f 1322 1323 1327 1326
f 1323 1324 1328 1327
f 1324 1321 1325 1328
f 1325 1326 1327 1328
f 1321 1324 1323 1322
v 18.6 0.3 8.6
v 21.4 0.3 8.6
v 21.4 0.3 11.4
v 18.6 0.3 11.4
v 18.6 3.687 8.6
v 21.4 3.687 8.6
v 21.4 3.687 11.4
v 18.6 3.687 11.4
f 1329 1330 1334 1333
f 1330 1331 1335 1334
f 1331 1332 1336 1335
f 1332 1329 1333 1336
f 1333 1334 1335 1336
f 1329 1332 1331 1330
v 18.6 0.3 13.6
v 21.4 0.3 13.6
v 21.4 0.3 16.4
v 18.6 0.3 16.4
v 18.6 12.048 13.6
v 21.4 12.048 13.6
v 21.4 12.048 16.4
v 18.6 12.048 16.4
f 1337 1338 1342 1341
f 1338 1339 1343 1342
f 1339 1340 1344 1343
f 1340 1337 1341 1344
f 1341 1342 1343 1344
f 1337 1340 1339 1338
v 18.6 0.3 18.6
v 21.4 0.3 18.6
v 21.4 0.3 21.4
v 18.6 0.3 21.4
v 18.6 11.446 18.6
v 21.4 11.446 18.6
v 21.4 11.446 21.4
v 18.6 11.446 21.4
f 1345 1346 1350 1349
f 1346 1347 1351 1350
f 1347 1348 1352 1351
f 1348 1345 1349 1352
f 1349 1350 1351 1352
f 1345 1348 1347 1346
v 18.6 0.3 23.6
v 21.4 0.3 23.6
v 21.4 0.3 26.4
v 18.6 0.3 26.4
v 18.6 6.171 23.6
v 21.4 6.171 23.6
v 21.4 6.171 26.4
v 18.6 6.171 26.4
f 1353 1354 1358 1357
f 1354 1355 1359 1358
f 1355 1356 1360 1359
f 1356 1353 1357 1360
f 1357 1358 1359 1360
f 1353 1356 1355 1354
v 18.6 0.3 28.6
v 21.4 0.3 28.6
v 21.4 0.3 31.4
v 18.6 0.3 31.4
v 18.6 8.234 28.6
v 21.4 8.234 28.6
v 21.4 8.234 31.4
v 18.6 8.234 31.4
f 1361 1362 1366 1365
f 1362 1363 1367 1366
f 1363 1364 1368 1367
f 1364 1361 1365 1368
f 1365 1366 1367 1368
f 1361 1364 1363 1362
v 18.6 0.3 33.6
v 21.4 0.3 33.6
v 21.4 0.3 36.4
v 18.6 0.3 36.4
v 18.6 7.921 33.6
v 21.4 7.921 33.6
v 21.4 7.921 36.4
v 18.6 7.921 36.4
f 1369 1370 1374 1373
f 1370 1371 1375 1374
f 1371 1372 1376 1375
f 1372 1369 1373 1376
f 1373 1374 1375 1376
f 1369 1372 1371 1370
v 23.6 0.3 -36.4
v 26.4 0.3 -36.4
v 26.4 0.3 -33.6
v 23.6 0.3 -33.6
v 23.6 2.468 -36.4
v 26.4 2.468 -36.4
v 26.4 2.468 -33.6
v 23.6 2.468 -33.6
f 1377 1378 1382 1381
f 1378 1379 1383 1382
f 1379 1380 1384 1383
f 1380 1377 1381 1384
f 1381 1382 1383 1384
f 1377 1380 1379 1378
v 23.6 0.3 -31.4
v 26.4 0.3 -31.4
v 26.4 0.3 -28.6
v 23.6 0.3 -28.6
v 23.6 5.509 -31.4
v 26.4 5.509 -31.4
v 26.4 5.509 -28.6
v 23.6 5.509 -28.6
f 1385 1386 1390 1389
f 1386 1387 1391 1390
f 1387 1388 1392 1391
f 1388 1385 1389 1392
f 1389 1390 1391 1392
f 1385 1388 1387 1386
v 23.6 0.3 -26.4
v 26.4 0.3 -26.4
v 26.4 0.3 -23.6
v 23.6 0.3 -23.6
v 23.6 2.323 -26.4
v 26.4 2.323 -26.4
v 26.4 2.323 -23.6
v 23.6 2.323 -23.6
f 1393 1394 1398 1397
f 1394 1395 1399 1398
f 1395 1396 1400 1399
f 1396 1393 1397 1400
f 1397 1398 1399 1400
f 1393 1396 1395 1394
v 23.6 0.3 -21.4
v 26.4 0.3 -21.4
v 26.4 0.3 -18.6
v 23.6 0.3 -18.6
v 23.6 4.841 -21.4
v 26.4 4.841 -21.4
v 26.4 4.841 -18.6
v 23.6 4.841 -18.6
f 1401 1402 1406 1405
f 1402 1403 1407 1406
f 1403 1404 1408 1407
f 1404 1401 1405 1408
f 1405 1406 1407 1408
f 1401 1404 1403 1402
v 23.6 0.3 -16.4
v 26.4 0.3 -16.4
v 26.4 0.3 -13.6
v 23.6 0.3 -13.6
v 23.6 5.664 -16.4
v 26.4 5.664 -16.4
v 26.4 5.664 -13.6
v 23.6 5.664 -13.6
f 1409 1410 1414 1413
f 1410 1411 1415 1414
f 1411 1412 1416 1415
f 1412 1409 1413 1416
f 1413 1414 1415 1416
f 1409 1412 1411 1410
v 23.6 0.3 -11.4
v 26.4 0.3 -11.4
v 26.4 0.3 -8.6
v 23.6 0.3 -8.6
v 23.6 8.5 -11.4
v 26.4 8.5 -11.4
v 26.4 8.5 -8.6
v 23.6 8.5 -8.6
f 1417 1418 1422 1421
f 1418 1419 1423 1422
f 1419 1420 1424 1423
f 1420 1417 1421 1424
f 1421 1422 1423 1424
f 1417 1420 1419 1418
v 23.6 0.3 -6.4
v 26.4 0.3 -6.4
v 26.4 0.3 -3.6
v 23.6 0.3 -3.6
v 23.6 11.304 -6.4
v 26.4 11.304 -6.4
v 26.4 11.304 -3.6
v 23.6 11.304 -3.6
f 1425 1426 1430 1429
f 1426 1427 1431 1430
f 1427 1428 1432 1431
f 1428 1425 1429 1432
f 1429 1430 1431 1432
f 1425 1428 1427 1426
v 23.6 0.3 -1.4
v 26.4 0.3 -1.4
v 26.4 0.3 1.4
v 23.6 0.3 1.4
v 23.6 5.2 -1.4
v 26.4 5.2 -1.4
v 26.4 5.2 1.4
v 23.6 5.2 1.4
f 1433 1434 1438 1437
f 1434 1435 1439 1438
f 1435 1436 1440 1439
f 1436 1433 1437 1440
f 1437 1438 1439 1440
f 1433 1436 1435 1434
v 23.6 0.3 3.6
v 26.4 0.3 3.6
v 26.4 0.3 6.4
v 23.6 0.3 6.4
v 23.6 2.697 3.6
v 26.4 2.697 3.6
v 26.4 2.697 6.4
v 23.6 2.697 6.4
f 1441 1442 1446 1445
f 1442 1443 1447 1446
f 1443 1444 1448 1447
f 1444 1441 1445 1448
f 1445 1446 1447 1448
f 1441 1444 1443 1442
v 23.6 0.3 8.6
v 26.4 0.3 8.6
v 26.4 0.3 11.4
v 23.6 0.3 11.4
v 23.6 4.712 8.6
v 26.4 4.712 8.6
v 26.4 4.712 11.4
v 23.6 4.712 11.4
f 1449 1450 1454 1453
f 1450 1451 1455 1454
f 1451 1452 1456 1455
f 1452 1449 1453 1456
f 1453 1454 1455 1456
f 1449 1452 1451 1450
v 23.6 0.3 13.6
v 26.4 0.3 13.6
v 26.4 0.3 16.4
v 23.6 0.3 16.4
v 23.6 2.528 13.6
v 26.4 2.528 13.6
v 26.4 2.528 16.4
v 23.6 2.528 16.4
f 1457 1458 1462 1461
f 1458 1459 1463 1462
f 1459 1460 1464 1463
f 1460 1457 1461 1464
f 1461 1462 1463 1464
f 1457 1460 1459 1458
v 23.6 0.3 18.6
v 26.4 0.3 18.6
v 26.4 0.3 21.4
v 23.6 0.3 21.4
v 23.6 6.494 18.6
v 26.4 6.494 18.6
v 26.4 6.494 21.4
v 23.6 6.494 21.4
f 1465 1466 1470 1469
f 1466 1467 1471 1470
f 1467 1468 1472 1471
f 1468 1465 1469 1472
f 1469 1470 1471 1472
f 1465 1468 1467 1466
v 23.6 0.3 23.6
v 26.4 0.3 23.6
v 26.4 0.3 26.4
v 23.6 0.3 26.4
v 23.6 4.796 23.6
v 26.4 4.796 23.6
v 26.4 4.796 26.4
v 23.6 4.796 26.4
f 1473 1474 1478 1477
f 1474 1475 1479 1478
f 1475 1476 1480 1479
f 1476 1473 1477 1480
f 1477 1478 1479 1480
f 1473 1476 1475 1474
v 23.6 0.3 28.6
v 26.4 0.3 28.6
v 26.4 0.3 31.4
v 23.6 0.3 31.4
v 23.6 4.81 28.6
v 26.4 4.81 28.6
v 26.4 4.81 31.4
v 23.6 4.81 31.4
f 1481 1482 1486 1485
f 1482 1483 1487 1486
f 1483 1484 1488 1487
f 1484 1481 1485 1488
f 1485 1486 1487 1488
f 1481 1484 1483 1482
v 23.6 0.3 33.6
v 26.4 0.3 33.6
v 26.4 0.3 36.4
v 23.6 0.3 36.4
v 23.6 4.079 33.6
v 26.4 4.079 33.6
v 26.4 4.079 36.4
v 23.6 4.079 36.4
f 1489 1490 1494 1493
f 1490 1491 1495 1494
f 1491 1492 1496 1495
f 1492 1489 1493 1496
f 1493 1494 1495 1496
f 1489 1492 1491 1490
v 28.6 0.3 -36.4
v 31.4 0.3 -36.4
v 31.4 0.3 -33.6
v 28.6 0.3 -33.6
v 28.6 5.501 -36.4
v 31.4 5.501 -36.4
v 31.4 5.501 -33.6
v 28.6 5.501 -33.6
f 1497 1498 1502 1501
f 1498 1499 1503 1502
f 1499 1500 1504 1503
f 1500 1497 1501 1504
f 1501 1502 1503 1504
f 1497 1500 1499 1498
v 28.6 0.3 -31.4
v 31.4 0.3 -31.4
v 31.4 0.3 -28.6
v 28.6 0.3 -28.6
v 28.6 3.243 -31.4
v 31.4 3.243 -31.4
v 31.4 3.243 -28.6
v 28.6 3.243 -28.6
f 1505 1506 1510 1509
f 1506 1507 1511 1510
f 1507 1508 1512 1511
f 1508 1505 1509 1512
f 1509 1510 1511 1512
f 1505 1508 1507 1506
v 28.6 0.3 -26.4
v 31.4 0.3 -26.4
v 31.4 0.3 -23.6
v 28.6 0.3 -23.6
v 28.6 6.473 -26.4
v 31.4 6.473 -26.4
v 31.4 6.473 -23.6
v 28.6 6.473 -23.6
f 1513 1514 1518 1517
f 1514 1515 1519 1518
f 1515 1516 1520 1519
f 1516 1513 1517 1520
f 1517 1518 1519 1520
f 1513 1516 1515 1514
v 28.6 0.3 -21.4
v 31.4 0.3 -21.4
v 31.4 0.3 -18.6
v 28.6 0.3 -18.6
v 28.6 2.023 -21.4
v 31.4 2.023 -21.4
v 31.4 2.023 -18.6
v 28.6 2.023 -18.6
f 1521 1522 1526 1525
f 1522 1523 1527 1526
f 1523 1524 1528 1527
f 1524 1521 1525 1528
f 1525 1526 1527 1528
f 1521 1524 1523 1522
v 28.6 0.3 -16.4
v 31.4 0.3 -16.4
v 31.4 0.3 -13.6
v 28.6 0.3 -13.6
v 28.6 3.206 -16.4
v 31.4 3.206 -16.4
v 31.4 3.206 -13.6
v 28.6 3.206 -13.6
f 1529 1530 1534 1533
f 1530 1531 1535 1534
f 1531 1532 1536 1535
f 1532 1529 1533 1536
f 1533 1534 1535 1536
f 1529 1532 1531 1530
v 28.6 0.3 -11.4
v 31.4 0.3 -11.4
v 31.4 0.3 -8.6
v 28.6 0.3 -8.6
v 28.6 5.289 -11.4
v 31.4 5.289 -11.4
v 31.4 5.289 -8.6
v 28.6 5.289 -8.6
f 1537 1538 1542 1541
f 1538 1539 1543 1542
f 1539 1540 1544 1543
f 1540 1537 1541 1544
f 1541 1542 1543 1544
f 1537 1540 1539 1538
v 28.6 0.3 -6.4
v 31.4 0.3 -6.4
v 31.4 0.3 -3.6
v 28.6 0.3 -3.6
v 28.6 2.704 -6.4
v 31.4 2.704 -6.4
v 31.4 2.704 -3.6
v 28.6 2.704 -3.6
f 1545 1546 1550 1549
f 1546 1547 1551 1550
f 1547 1548 1552 1551
f 1548 1545 1549 1552
f 1549 1550 1551 1552
f 1545 1548 1547 1546
v 28.6 0.3 -1.4
v 31.4 0.3 -1.4
v 31.4 0.3 1.4
v 28.6 0.3 1.4
v 28.6 7.44 -1.4
v 31.4 7.44 -1.4
v 31.4 7.44 1.4
v 28.6 7.44 1.4
f 1553 1554 1558 1557
f 1554 1555 1559 1558
f 1555 1556 1560 1559
f 1556 1553 1557 1560
f 1557 1558 1559 1560
f 1553 1556 1555 1554
v 28.6 0.3 3.6
v 31.4 0.3 3.6
v 31.4 0.3 6.4
v 28.6 0.3 6.4
v 28.6 3.255 3.6
v 31.4 3.255 3.6
v 31.4 3.255 6.4
v 28.6 3.255 6.4
f 1561 1562 1566 1565
f 1562 1563 1567 1566
f 1563 1564 1568 1567
f 1564 1561 1565 1568
f 1565 1566 1567 1568
f 1561 1564 1563 1562
v 28.6 0.3 8.6
v 31.4 0.3 8.6
v 31.4 0.3 11.4
v 28.6 0.3 11.4
v 28.6 2.869 8.6
v 31.4 2.869 8.6
v 31.4 2.869 11.4
v 28.6 2.869 11.4
f 1569 1570 1574 1573
f 1570 1571 1575 1574
f 1571 1572 1576 1575
f 1572 1569 1573 1576
f 1573 1574 1575 1576
f 1569 1572 1571 1570
v 28.6 0.3 13.6
v 31.4 0.3 13.6
v 31.4 0.3 16.4
v 28.6 0.3 16.4
v 28.6 6.282 13.6
v 31.4 6.282 13.6
v 31.4 6.282 16.4
v 28.6 6.282 16.4
f 1577 1578 1582 1581
f 1578 1579 1583 1582
f 1579 1580 1584 1583
f 1580 1577 1581 1584
f 1581 1582 1583 1584
f 1577 1580 1579 1578
v 28.6 0.3 18.6
v 31.4 0.3 18.6
v 31.4 0.3 21.4
v 28.6 0.3 21.4
v 28.6 4.004 18.6
v 31.4 4.004 18.6
v 31.4 4.004 21.4
v 28.6 4.004 21.4
f 1585 1586 1590 1589
f 1586 1587 1591 1590
f 1587 1588 1592 1591
f 1588 1585 1589 1592
f 1589 1590 1591 1592
f 1585 1588 1587 1586
v 28.6 0.3 23.6
v 31.4 0.3 23.6
v 31.4 0.3 26.4
v 28.6 0.3 26.4
v 28.6 2.113 23.6
v 31.4 2.113 23.6
v 31.4 2.113 26.4
v 28.6 2.113 26.4
f 1593 1594 1598 1597
f 1594 1595 1599 1598
f 1595 1596 1600 1599
f 1596 1593 1597 1600
f 1597 1598 1599 1600
f 1593 1596 1595 1594
v 28.6 0.3 28.6
v 31.4 0.3 28.6
v 31.4 0.3 31.4
v 28.6 0.3 31.4
v 28.6 6.173 28.6
v 31.4 6.173 28.6
v 31.4 6.173 31.4
v 28.6 6.173 31.4
f 1601 1602 1606 1605
f 1602 1603 1607 1606
f 1603 1604 1608 1607
f 1604 1601 1605 1608
f 1605 1606 1607 1608
f 1601 1604 1603 1602
v 28.6 0.3 33.6
v 31.4 0.3 33.6
v 31.4 0.3 36.4
v 28.6 0.3 36.4
v 28.6 5.999 33.6
v 31.4 5.999 33.6
v 31.4 5.999 36.4
v 28.6 5.999 36.4
f 1609 1610 1614 1613
f 1610 1611 1615 1614
f 1611 1612 1616 1615
f 1612 1609 1613 1616
f 1613 1614 1615 1616
f 1609 1612 1611 1610
v 33.6 0.3 -36.4
v 36.4 0.3 -36.4
v 36.4 0.3 -33.6
v 33.6 0.3 -33.6
v 33.6 6.069 -36.4
v 36.4 6.069 -36.4
v 36.4 6.069 -33.6
v 33.6 6.069 -33.6
f 1617 1618 1622 1621
f 1618 1619 1623 1622
f 1619 1620 1624 1623
f 1620 1617 1621 1624
f 1621 1622 1623 1624
f 1617 1620 1619 1618
v 33.6 0.3 -31.4
v 36.4 0.3 -31.4
v 36.4 0.3 -28.6
v 33.6 0.3 -28.6
v 33.6 6.698 -31.4
v 36.4 6.698 -31.4
v 36.4 6.698 -28.6
v 33.6 6.698 -28.6
f 1625 1626 1630 1629
f 1626 1627 1631 1630
f 1627 1628 1632 1631
f 1628 1625 1629 1632
f 1629 1630 1631 1632
f 1625 1628 1627 1626
v 33.6 0.3 -26.4
v 36.4 0.3 -26.4
v 36.4 0.3 -23.6
v 33.6 0.3 -23.6
v 33.6 5.335 -26.4
v 36.4 5.335 -26.4
v 36.4 5.335 -23.6
v 33.6 5.335 -23.6
f 1633 1634 1638 1637
f 1634 1635 1639 1638
f 1635 1636 1640 1639
f 1636 1633 1637 1640
f 1637 1638 1639 1640
f 1633 1636 1635 1634
v 33.6 0.3 -21.4
v 36.4 0.3 -21.4
v 36.4 0.3 -18.6
v 33.6 0.3 -18.6
v 33.6 8.345 -21.4
v 36.4 8.345 -21.4
v 36.4 8.345 -18.6
v 33.6 8.345 -18.6
f 1641 1642 1646 1645
f 1642 1643 1647 1646
f 1643 1644 1648 1647
f 1644 1641 1645 1648
f 1645 1646 1647 1648
f 1641 1644 1643 1642
v 33.6 0.3 -16.4
v 36.4 0.3 -16.4
v 36.4 0.3 -13.6
v 33.6 0.3 -13.6
v 33.6 2.02 -16.4
v 36.4 2.02 -16.4
v 36.4 2.02 -13.6
v 33.6 2.02 -13.6
f 1649 1650 1654 1653
f 1650 1651 1655 1654
f 1651 1652 1656 1655
f 1652 1649 1653 1656
f 1653 1654 1655 1656
f 1649 1652 1651 1650
v 33.6 0.3 -11.4
v 36.4 0.3 -11.4
v 36.4 0.3 -8.6
v 33.6 0.3 -8.6
v 33.6 6.971 -11.4
v 36.4 6.971 -11.4
v 36.4 6.971 -8.6
v 33.6 6.971 -8.6
f 1657 1658 1662 1661
f 1658 1659 1663 1662
f 1659 1660 1664 1663
f 1660 1657 1661 1664
f 1661 1662 1663 1664
f 1657 1660 1659 1658
v 33.6 0.3 -6.4
v 36.4 0.3 -6.4
v 36.4 0.3 -3.6
v 33.6 0.3 -3.6
v 33.6 5.507 -6.4
v 36.4 5.507 -6.4
v 36.4 5.507 -3.6
v 33.6 5.507 -3.6
f 1665 1666 1670 1669
f 1666 1667 1671 1670
f 1667 1668 1672 1671
f 1668 1665 1669 1672
f 1669 1670 1671 1672
f 1665 1668 1667 1666
v 33.6 0.3 -1.4
v 36.4 0.3 -1.4
v 36.4 0.3 1.4
v 33.6 0.3 1.4
v 33.6 6.772 -1.4
v 36.4 6.772 -1.4
v 36.4 6.772 1.4
v 33.6 6.772 1.4
f 1673 1674 1678 1677
f 1674 1675 1679 1678
f 1675 1676 1680 1679
f 1676 1673 1677 1680
f 1677 1678 1679 1680
f 1673 1676 1675 1674
v 33.6 0.3 3.6
v 36.4 0.3 3.6
v 36.4 0.3 6.4
v 33.6 0.3 6.4
v 33.6 8.669 3.6
v 36.4 8.669 3.6
v 36.4 8.669 6.4
v 33.6 8.669 6.4
f 1681 1682 1686 1685
f 1682 1683 1687 1686
f 1683 1684 1688 1687
f 1684 1681 1685 1688
f 1685 1686 1687 1688
f 1681 1684 1683 1682
v 33.6 0.3 8.6
v 36.4 0.3 8.6
v 36.4 0.3 11.4
v 33.6 0.3 11.4
v 33.6 2.039 8.6
v 36.4 2.039 8.6
v 36.4 2.039 11.4
v 33.6 2.039 11.4
f 1689 1690 1694 1693
f 1690 1691 1695 1694
f 1691 1692 1696 1695
f 1692 1689 1693 1696
f 1693 1694 1695 1696
f 1689 1692 1691 1690
v 33.6 0.3 13.6
v 36.4 0.3 13.6
v 36.4 0.3 16.4
v 33.6 0.3 16.4
v 33.6 2.3 13.6
v 36.4 2.3 13.6
v 36.4 2.3 16.4
v 33.6 2.3 16.4
f 1697 1698 1702 1701
f 1698 1699 1703 1702
f 1699 1700 1704 1703
f 1700 1697 1701 1704
f 1701 1702 1703 1704
f 1697 1700 1699 1698
v 33.6 0.3 18.6
v 36.4 0.3 18.6
v 36.4 0.3 21.4
v 33.6 0.3 21.4
v 33.6 2.12 18.6
v 36.4 2.12 18.6
v 36.4 2.12 21.4
v 33.6 2.12 21.4
f 1705 1706 1710 1709
f 1706 1707 1711 1710
f 1707 1708 1712 1711
f 1708 1705 1709 1712
f 1709 1710 1711 1712
f 1705 1708 1707 1706
v 33.6 0.3 23.6
v 36.4 0.3 23.6
v 36.4 0.3 26.4
v 33.6 0.3 26.4
v 33.6 2.176 23.6
v 36.4 2.176 23.6
v 36.4 2.176 26.4
v 33.6 2.176 26.4
f 1713 1714 1718 1717
f 1714 1715 1719 1718
f 1715 1716 1720 1719
f 1716 1713 1717 1720
f 1717 1718 1719 1720
f 1713 1716 1715 1714
v 33.6 0.3 28.6
v 36.4 0.3 28.6
v 36.4 0.3 31.4
v 33.6 0.3 31.4
v 33.6 2.106 28.6
v 36.4 2.106 28.6
v 36.4 2.106 31.4
v 33.6 2.106 31.4
f 1721 1722 1726 1725
f 1722 1723 1727 1726
f 1723 1724 1728 1727
f 1724 1721 1725 1728
f 1725 1726 1727 1728
f 1721 1724 1723 1722
v 33.6 0.3 33.6
v 36.4 0.3 33.6
v 36.4 0.3 36.4
v 33.6 0.3 36.4
v 33.6 2.003 33.6
v 36.4 2.003 33.6
v 36.4 2.003 36.4
v 33.6 2.003 36.4
f 1729 1730 1734 1733
f 1730 1731 1735 1734
f 1731 1732 1736 1735
f 1732 1729 1733 1736
f 1733 1734 1735 1736
f 1729 1732 1731 1730
